<svg version="1.1" id="Layer_1" xmlns="http://www.w3.org/2000/svg" xmlns:xlink="http://www.w3.org/1999/xlink" x="0px" y="0px"
	 width="100%" viewBox="0 0 500 500" enable-background="new 0 0 500 500" xml:space="preserve" preserveAspectRatio="none">
<path fill="none" opacity="1.000000" stroke="none" 
	d="
M264.000000,501.000000 
	C176.000015,501.000000 88.500038,501.000000 1.000047,501.000000 
	C1.000031,334.333405 1.000031,167.666794 1.000016,1.000136 
	C167.666565,1.000091 334.333130,1.000091 500.999756,1.000046 
	C500.999847,167.666519 500.999847,334.333038 500.999939,500.999786 
	C422.166656,501.000000 343.333344,501.000000 264.000000,501.000000 
M223.404449,48.320087 
	C222.921402,49.550434 222.438354,50.780777 221.759506,52.172932 
	C221.759506,52.172932 221.830765,52.416740 221.268997,52.953777 
	C220.587524,54.095348 219.906036,55.236919 219.539047,55.851685 
	C217.696472,53.938530 216.282623,51.259743 214.789429,51.214756 
	C212.744751,51.153156 210.240967,52.696541 208.669479,54.281361 
	C206.996994,55.968056 205.898148,58.400192 205.047729,60.691971 
	C202.597931,67.293999 203.912125,69.360779 210.981873,70.285042 
	C210.598221,71.216705 210.240036,72.086525 209.409042,73.164505 
	C209.284149,73.477104 209.159241,73.789696 208.506760,74.422966 
	C207.929657,75.253082 207.352539,76.083206 206.202545,77.260696 
	C200.449402,82.072227 203.259262,89.328369 201.157654,95.246750 
	C198.750824,102.024681 200.434036,108.399849 205.414444,113.812881 
	C193.150803,120.552094 185.254333,130.418839 183.367249,144.591675 
	C182.774979,149.040039 182.127426,153.481613 181.588440,157.936371 
	C180.263977,168.883179 175.113800,178.357971 170.558960,188.164001 
	C164.014420,202.253586 168.943817,214.073395 183.044937,220.468384 
	C189.076309,223.203644 195.012222,226.149384 201.121826,229.596481 
	C201.210495,229.992844 201.299179,230.389191 201.070587,231.591232 
	C198.784561,242.472366 198.323318,253.367355 201.197067,264.206207 
	C202.855148,270.459930 204.597977,276.704956 206.647629,282.838623 
	C213.752625,304.100403 221.027054,325.305511 228.174057,346.553345 
	C228.776230,348.343628 228.909485,350.291626 229.260590,352.166321 
	C228.930374,352.224518 228.600159,352.282684 228.269928,352.340881 
	C227.715027,350.890076 227.160141,349.439270 226.491882,347.692078 
	C222.603592,366.308380 218.770645,384.497650 215.027740,402.705414 
	C214.195480,406.753967 213.680374,410.867737 212.553268,415.561798 
	C212.388718,416.198120 212.221970,416.833923 212.059921,417.470886 
	C209.799866,426.354034 209.936905,435.974335 203.290131,443.909973 
	C199.529984,446.605713 198.726822,450.330780 200.065186,454.461700 
	C201.591888,459.173950 203.251968,463.870300 205.259003,468.393921 
	C209.504333,477.962402 217.873581,481.439453 228.034714,478.336365 
	C231.604294,477.246277 231.465668,475.716431 229.597763,472.959198 
	C226.771774,468.787689 224.356888,464.337677 221.755203,459.250610 
	C221.406784,456.024567 220.158920,452.577911 220.885513,449.615540 
	C222.758545,441.978943 225.504974,434.556549 228.697739,427.044128 
	C231.454376,427.593750 232.126404,429.335449 232.376907,432.028290 
	C232.576752,434.176453 234.072876,436.204041 235.039551,439.167480 
	C234.418793,445.466614 233.798035,451.765717 232.734711,458.628418 
	C228.866516,468.681854 229.946457,470.753876 240.235275,473.031738 
	C241.044739,473.210968 241.838913,473.480072 242.655930,473.601349 
	C252.612106,475.079224 262.544464,476.798218 272.547577,477.825562 
	C275.207733,478.098785 278.087463,476.234314 280.866364,475.351318 
	C280.898132,474.566772 280.929871,473.782227 280.961639,472.997650 
	C275.960114,470.683105 270.958557,468.368530 265.628845,465.469055 
	C258.109497,461.172333 250.921356,456.618073 251.040848,446.462555 
	C251.076065,443.470551 251.142029,440.478912 251.939957,437.234985 
	C261.313385,435.012909 261.697083,434.773071 262.941132,425.226624 
	C265.518646,405.447723 268.058289,385.662048 270.371216,365.850861 
	C274.059143,334.262238 277.001801,302.605194 275.794800,270.749298 
	C275.329224,258.461365 274.036896,246.204803 273.186279,233.104980 
	C273.155426,231.442200 273.124573,229.779404 273.654175,227.942444 
	C274.137604,227.645508 274.621033,227.348572 275.627167,226.737473 
	C275.720184,226.158966 275.813202,225.580460 275.874603,224.375656 
	C275.246307,223.934006 274.618011,223.492340 273.632416,222.460770 
	C274.349487,221.902298 275.000702,221.032440 275.800171,220.863220 
	C276.826508,220.646011 277.971985,220.991821 278.999481,221.002350 
	C278.999481,221.002350 279.071075,221.090530 279.724792,220.871155 
	C279.727051,218.926651 279.729309,216.982132 280.459442,214.977448 
	C286.637482,209.486816 292.761353,203.933380 299.019836,198.536072 
	C301.564575,196.341507 302.589417,193.843353 302.006012,189.964279 
	C307.872864,181.263626 313.714081,172.545486 319.622498,163.873154 
	C321.355499,161.329514 323.279266,158.915848 325.692657,156.062775 
	C325.549408,154.300507 326.004761,152.127167 325.136444,150.862885 
	C323.410889,148.350357 320.956482,146.338409 318.801453,143.366013 
	C321.866150,141.574585 324.742523,139.190598 328.043121,138.141541 
	C332.179932,136.826721 336.664856,136.607285 341.568970,135.949234 
	C341.732971,135.852936 341.896942,135.756653 342.977539,135.640686 
	C346.742859,135.640686 350.508179,135.640686 352.569702,135.640686 
	C355.347748,132.834671 357.081299,131.083694 359.766479,128.371506 
	C356.527710,128.583801 354.435150,128.720978 352.308655,128.860367 
	C352.428314,127.449387 352.526276,126.293747 352.657806,124.742447 
	C351.458191,125.339760 350.732147,125.701271 349.307678,125.928291 
	C345.646881,124.017662 343.846680,126.928123 341.031342,128.983276 
	C340.020355,129.321747 339.009399,129.660202 337.359009,129.894608 
	C336.928558,129.922180 336.498077,129.949753 335.901001,129.236969 
	C336.249695,126.039925 335.033325,125.376953 331.888275,126.042892 
	C327.300964,127.014214 322.569519,127.291954 317.913391,127.961578 
	C316.941864,128.101288 316.030640,128.659897 314.472839,129.305649 
	C312.101990,132.236359 309.731140,135.167068 306.911224,138.618881 
	C301.615326,145.443909 296.137512,152.171600 293.957428,160.804932 
	C292.848877,165.194901 290.037689,166.661667 285.715576,165.073746 
	C286.376953,161.361954 284.749512,159.376785 280.785339,158.249527 
	C277.191833,148.086929 273.180573,138.048645 270.110260,127.730370 
	C266.251587,114.762627 255.291000,109.829468 244.648392,103.402771 
	C243.693481,102.272690 242.738571,101.142601 241.999359,99.206741 
	C241.984497,98.093170 241.969635,96.979607 242.809555,95.846588 
	C249.581055,95.948135 253.179855,94.367134 254.191315,89.608856 
	C254.947144,86.053169 254.565964,82.165253 254.168686,78.481613 
	C253.804657,75.106201 252.740784,71.806259 252.549957,67.926628 
	C257.131348,60.199097 255.048172,54.145874 245.906937,49.330448 
	C243.949722,49.256180 241.992508,49.181911 239.349777,49.013252 
	C238.905167,49.125538 238.460571,49.237820 237.489883,49.224335 
	C237.320648,49.286552 237.151428,49.348774 236.442902,49.179962 
	C236.253036,49.133057 236.063187,49.086151 235.592957,48.391602 
	C233.899826,46.637020 232.025497,43.316280 230.555008,43.486397 
	C228.213013,43.757328 226.139999,46.353500 224.004562,47.990902 
	C224.004562,47.990902 223.961014,47.951973 223.404449,48.320087 
z"/>
<path fill="#627AB2" opacity="1.000000" stroke="none" 
	d="
M273.121277,233.933929 
	C274.036896,246.204803 275.329224,258.461365 275.794800,270.749298 
	C277.001801,302.605194 274.059143,334.262238 270.371216,365.850861 
	C268.058289,385.662048 265.518646,405.447723 262.941132,425.226624 
	C261.697083,434.773071 261.313385,435.012909 251.141937,437.264648 
	C245.227142,437.624634 240.110367,437.954895 234.993591,438.285156 
	C234.072876,436.204041 232.576752,434.176453 232.376907,432.028290 
	C232.126404,429.335449 231.454376,427.593750 228.145050,426.753998 
	C222.734634,422.626404 217.876938,418.788940 213.019241,414.951477 
	C213.680374,410.867737 214.195480,406.753967 215.027740,402.705414 
	C218.770645,384.497650 222.603592,366.308380 226.491882,347.692078 
	C227.160141,349.439270 227.715027,350.890076 228.269928,352.340881 
	C228.600159,352.282684 228.930374,352.224518 229.260590,352.166321 
	C228.909485,350.291626 228.776230,348.343628 228.174057,346.553345 
	C221.027054,325.305511 213.752625,304.100403 206.647629,282.838623 
	C204.597977,276.704956 202.855148,270.459930 201.197067,264.206207 
	C198.323318,253.367355 198.784561,242.472366 201.543198,231.210175 
	C202.637604,230.835510 203.259384,230.841904 204.127808,230.955185 
	C204.549515,231.100372 204.724594,231.138657 204.965851,231.499146 
	C206.696533,233.176071 208.361038,234.530792 210.010315,236.286972 
	C209.011398,242.821198 206.605743,249.129974 207.338623,255.050247 
	C208.887039,267.558777 211.915726,279.900299 214.689285,292.231140 
	C215.527542,295.957947 217.524246,299.424164 218.990356,303.429169 
	C220.949539,317.527710 226.680878,329.866394 232.374680,342.248352 
	C232.721237,340.311859 232.396332,338.585327 231.831223,336.941376 
	C228.678299,327.769318 225.525253,318.596283 222.234863,309.473175 
	C221.421799,307.218842 220.097839,305.148804 219.044373,302.638123 
	C219.129242,301.021729 219.507996,299.665131 219.172974,298.516785 
	C217.322037,292.172424 215.084381,285.935760 213.375168,279.556152 
	C209.595001,265.446869 206.622467,251.257050 212.403564,236.872925 
	C219.555862,239.503265 226.337921,242.096039 233.425278,244.855499 
	C234.315887,245.608124 234.980469,246.134445 235.473404,246.789856 
	C238.242264,250.471344 240.825470,250.752670 244.263626,247.241302 
	C247.715363,243.716095 251.811050,240.821442 255.984131,237.728851 
	C257.197632,237.529083 258.051544,237.250931 259.321320,236.984146 
	C260.845673,237.034576 261.954224,237.073624 263.277557,237.328735 
	C264.331268,236.093063 265.170197,234.641357 266.388489,233.157806 
	C267.529510,233.127380 268.291107,233.128769 269.311279,233.365448 
	C270.753662,233.711823 271.937469,233.822876 273.121277,233.933929 
M253.511856,280.988403 
	C255.396515,292.913544 257.032410,304.884674 259.224762,316.752960 
	C262.426971,334.088135 261.439240,351.065369 255.906769,367.776459 
	C249.757919,386.349304 243.525391,404.894470 237.389069,423.471405 
	C236.754135,425.393555 236.525360,427.449890 236.108124,429.443939 
	C236.537598,429.620819 236.967056,429.797699 237.396530,429.974579 
	C238.238525,428.562256 239.365463,427.245941 239.878754,425.722839 
	C245.442612,409.212891 251.334442,392.795929 256.271942,376.097870 
	C260.344055,362.326477 265.282196,348.546326 263.936523,333.769379 
	C263.156647,325.205292 262.365784,316.611084 260.907227,308.146332 
	C257.902832,290.710693 254.459915,273.350372 251.145905,255.968872 
	C250.945435,254.917374 250.293213,253.951981 249.851181,252.946533 
	C249.302505,253.108749 248.753830,253.270981 248.205154,253.433197 
	C249.879425,262.347382 251.553696,271.261566 253.511856,280.988403 
M225.950546,394.435852 
	C226.931503,390.263885 227.858429,386.078278 228.908859,381.923889 
	C229.927658,377.894653 231.073364,373.897522 232.163345,369.886292 
	C231.735489,369.794739 231.307617,369.703186 230.879761,369.611633 
	C224.300964,385.507751 219.234650,407.759918 221.523468,411.634583 
	C222.980560,406.039001 224.384506,400.647491 225.950546,394.435852 
M236.979538,360.276855 
	C236.318726,354.959442 235.657928,349.642059 234.997131,344.324646 
	C234.679291,344.411530 234.361450,344.498413 234.043610,344.585297 
	C234.043610,350.894745 234.043610,357.204163 234.043610,363.513611 
	C234.520142,363.593842 234.996674,363.674042 235.473206,363.754272 
	C235.971771,362.868835 236.470337,361.983398 236.979538,360.276855 
z"/>
<path fill="#E74752" opacity="1.000000" stroke="none" 
	d="
M204.899658,231.176926 
	C204.724594,231.138657 204.549515,231.100372 204.034698,230.707428 
	C202.793793,229.901672 201.892654,229.450577 200.991516,228.999481 
	C195.012222,226.149384 189.076309,223.203644 183.044937,220.468384 
	C168.943817,214.073395 164.014420,202.253586 170.558960,188.164001 
	C175.113800,178.357971 180.263977,168.883179 181.588440,157.936371 
	C182.127426,153.481613 182.774979,149.040039 183.367249,144.591675 
	C185.254333,130.418839 193.150803,120.552094 205.930084,113.385460 
	C210.858566,110.601929 215.271408,108.245819 219.993027,106.055634 
	C225.120377,111.879929 229.884399,117.586121 234.782349,123.174919 
	C236.977280,125.679436 239.067459,125.789619 240.097198,122.104248 
	C241.784561,116.065170 243.371429,109.998009 245.000687,103.942696 
	C255.291000,109.829468 266.251587,114.762627 270.110260,127.730370 
	C273.180573,138.048645 277.191833,148.086929 280.654541,158.789032 
	C278.415253,163.435822 275.848846,160.893768 273.247467,159.536102 
	C272.393097,158.039246 271.674866,156.826508 270.878662,155.288864 
	C270.504456,154.650070 270.208252,154.336166 269.927887,154.141418 
	C269.943756,154.260559 269.711456,154.322479 269.825989,153.891998 
	C268.075073,143.429794 264.322540,134.173553 258.908844,125.599724 
	C258.775360,127.192207 259.431396,128.468445 259.875336,129.814621 
	C262.226227,136.942886 264.523804,144.088730 266.522156,151.103943 
	C264.095367,148.624130 261.739227,146.441742 259.939209,143.870132 
	C257.650848,140.600906 255.543716,140.567337 252.623306,143.020218 
	C242.682144,151.369843 232.615295,159.569626 222.638275,167.876877 
	C215.763245,173.601318 208.957443,179.408920 202.070190,184.763214 
	C203.554260,180.232895 204.334351,175.594894 206.760788,172.099884 
	C215.000534,160.231415 214.528336,147.977585 209.592026,135.295700 
	C208.591064,132.724121 206.994202,130.384460 205.276962,127.206779 
	C204.614502,128.778503 204.322983,129.129715 204.402878,129.339447 
	C204.753174,130.259003 205.167908,131.160858 205.636215,132.027588 
	C212.702499,145.105682 213.309906,157.859985 205.214081,171.026215 
	C201.570541,176.951691 199.725952,183.983322 197.056427,190.818878 
	C197.000366,191.732483 196.953018,192.340286 196.515839,192.970978 
	C189.908157,190.254364 183.746826,190.086151 177.636353,192.230896 
	C177.638809,192.691071 177.641266,193.151230 177.643707,193.611404 
	C182.057770,193.365906 186.471817,193.120407 191.279953,192.852982 
	C187.809982,195.478012 184.868927,197.702896 181.582764,199.984772 
	C179.839630,200.899902 178.441635,201.758087 177.043625,202.616272 
	C177.491425,203.150635 177.939224,203.684998 178.387024,204.219360 
	C179.619003,202.840103 180.850983,201.460831 182.456970,200.069794 
	C187.579208,198.347168 192.327438,196.636307 197.388000,195.179077 
	C200.550797,196.687759 203.385895,197.979141 206.254791,199.190521 
	C212.892975,201.993484 219.462967,204.988571 226.222214,207.464600 
	C231.633301,209.446762 237.282455,210.779068 242.877075,212.785797 
	C241.639816,218.448090 240.351440,223.724350 238.736176,229.170090 
	C236.709412,233.666977 235.009552,237.994370 233.345367,242.310440 
	C233.381027,242.299118 233.384949,242.373871 232.984406,242.227997 
	C223.355804,238.447067 214.127731,234.811996 204.899658,231.176926 
z"/>
<path fill="#EFEEEE" opacity="1.000000" stroke="none" 
	d="
M242.825958,212.399780 
	C237.282455,210.779068 231.633301,209.446762 226.222214,207.464600 
	C219.462967,204.988571 212.892975,201.993484 206.254791,199.190521 
	C203.385895,197.979141 200.550797,196.687759 197.527954,194.918030 
	C197.205612,193.918243 197.055634,193.433151 196.905655,192.948074 
	C196.953018,192.340286 197.000366,191.732483 197.398819,190.729736 
	C199.206848,188.616318 200.663788,186.897842 202.120728,185.179382 
	C208.957443,179.408920 215.763245,173.601318 222.638275,167.876877 
	C232.615295,159.569626 242.682144,151.369843 252.623306,143.020218 
	C255.543716,140.567337 257.650848,140.600906 259.939209,143.870132 
	C261.739227,146.441742 264.095367,148.624130 266.640839,151.405304 
	C267.955292,152.661621 268.833374,153.492050 269.711456,154.322479 
	C269.711456,154.322479 269.943756,154.260559 269.827515,154.520523 
	C270.126373,155.058243 270.541473,155.335999 270.956604,155.613770 
	C271.674866,156.826508 272.393097,158.039246 273.002197,159.819855 
	C272.321381,161.519058 271.154846,162.721527 271.280151,163.769455 
	C271.847504,168.512894 280.115143,174.126205 284.902863,173.389923 
	C289.511902,178.736740 293.846741,183.870209 298.345093,188.856186 
	C299.150024,189.748352 300.631012,190.030548 301.799835,190.594391 
	C302.589417,193.843353 301.564575,196.341507 299.019836,198.536072 
	C292.761353,203.933380 286.637482,209.486816 279.739502,214.858887 
	C273.036804,214.109604 267.054047,213.478851 261.088379,212.891144 
	C261.105469,212.934189 261.155121,212.855988 261.083862,212.554321 
	C260.364044,211.804810 259.715485,211.356979 259.042114,210.952667 
	C259.017365,210.996170 259.096649,210.935013 259.115356,210.582443 
	C259.485321,208.876846 259.836548,207.523834 260.135620,206.078491 
	C260.083435,205.986160 260.172577,206.174545 260.474243,206.101959 
	C261.231201,205.374527 261.686523,204.719681 262.364197,203.932236 
	C262.789215,203.332825 262.991791,202.866013 263.523987,202.230423 
	C265.879059,200.065140 266.843536,197.913635 262.974274,193.454498 
	C262.366821,194.978912 261.759338,196.503326 261.050873,198.186371 
	C260.949860,198.344986 260.858032,198.709717 260.539978,198.824310 
	C259.103516,200.271896 257.985138,201.604874 256.578003,203.101135 
	C251.801514,206.309540 247.313736,209.354660 242.825958,212.399780 
z"/>
<path fill="#E5916D" opacity="1.000000" stroke="none" 
	d="
M244.824539,103.672729 
	C243.371429,109.998009 241.784561,116.065170 240.097198,122.104248 
	C239.067459,125.789619 236.977280,125.679436 234.782349,123.174919 
	C229.884399,117.586121 225.120377,111.879929 220.160126,105.743576 
	C227.756851,99.163261 224.333740,91.219925 223.984802,83.803841 
	C217.844940,82.490120 214.913498,79.306061 216.369614,75.412079 
	C218.718826,69.129738 222.159424,74.987106 225.943390,75.143684 
	C223.519272,64.330780 232.842041,62.995197 238.761246,59.092403 
	C242.368317,56.714104 245.419891,59.470772 247.511581,62.429760 
	C248.186829,63.385010 247.750916,65.125710 247.860535,67.217293 
	C248.527176,67.420258 250.256226,67.946663 251.985275,68.473068 
	C252.740784,71.806259 253.804657,75.106201 254.168686,78.481613 
	C254.565964,82.165253 254.947144,86.053169 254.191315,89.608856 
	C253.179855,94.367134 249.581055,95.948135 242.070160,95.714661 
	C238.355392,94.471893 235.380035,93.361053 232.404678,92.250221 
	C232.119690,92.768066 231.834702,93.285912 231.549728,93.803757 
	C234.961029,95.873344 238.372345,97.942924 241.783661,100.012512 
	C242.738571,101.142601 243.693481,102.272690 244.824539,103.672729 
M246.335526,82.059464 
	C244.639252,82.137688 242.942993,82.215919 241.246719,82.294151 
	C241.028015,82.809128 240.809311,83.324104 240.590607,83.839073 
	C242.385284,85.092613 244.045593,86.858521 246.032349,87.379509 
	C246.998734,87.632912 248.575287,85.559380 249.875626,84.539230 
	C248.973450,83.723282 248.071289,82.907333 246.335526,82.059464 
z"/>
<path fill="#68180A" opacity="1.000000" stroke="none" 
	d="
M252.267609,68.199852 
	C250.256226,67.946663 248.527176,67.420258 247.860535,67.217293 
	C247.750916,65.125710 248.186829,63.385010 247.511581,62.429760 
	C245.419891,59.470772 242.368317,56.714104 238.761246,59.092403 
	C232.842041,62.995197 223.519272,64.330780 225.943390,75.143684 
	C222.159424,74.987106 218.718826,69.129738 216.369614,75.412079 
	C214.913498,79.306061 217.844940,82.490120 223.984802,83.803841 
	C224.333740,91.219925 227.756851,99.163261 219.851349,105.577652 
	C215.271408,108.245819 210.858566,110.601929 206.276047,113.142822 
	C200.434036,108.399849 198.750824,102.024681 201.157654,95.246750 
	C203.259262,89.328369 200.449402,82.072227 206.844635,77.070984 
	C208.002609,75.954948 208.518478,75.028618 209.034348,74.102295 
	C209.159241,73.789696 209.284149,73.477104 209.983612,73.046799 
	C212.418182,72.154694 215.254730,71.888046 215.967499,70.517159 
	C218.906616,64.864426 223.274658,59.525551 221.830765,52.416740 
	C221.830765,52.416740 221.759506,52.172932 222.170776,51.934624 
	C223.041702,50.448200 223.501358,49.200085 223.961014,47.951973 
	C223.961014,47.951973 224.004562,47.990902 224.337204,47.953247 
	C228.196365,44.848640 231.531662,44.075012 234.517090,48.648926 
	C234.711685,48.947094 235.409546,48.916771 235.873322,49.039246 
	C236.063187,49.086151 236.253036,49.133057 236.735291,49.507179 
	C237.196625,50.033947 237.365585,50.233498 237.534546,50.433052 
	C237.695023,50.072071 237.855499,49.711090 238.015961,49.350105 
	C238.460571,49.237820 238.905167,49.125538 239.984726,49.329536 
	C242.525604,49.722061 244.431519,49.798306 246.337448,49.874550 
	C255.048172,54.145874 257.131348,60.199097 252.267609,68.199852 
z"/>
<path fill="#E74753" opacity="1.000000" stroke="none" 
	d="
M301.902924,190.279327 
	C300.631012,190.030548 299.150024,189.748352 298.345093,188.856186 
	C293.846741,183.870209 289.511902,178.736740 284.952759,173.009094 
	C284.813599,170.144791 282.285919,167.538040 285.771698,165.841537 
	C290.037689,166.661667 292.848877,165.194901 293.957428,160.804932 
	C296.137512,152.171600 301.615326,145.443909 307.447327,138.409515 
	C310.951599,140.756958 313.919800,143.313797 316.947571,146.229370 
	C319.709991,149.872971 322.412811,153.157791 325.115631,156.442627 
	C323.279266,158.915848 321.355499,161.329514 319.622498,163.873154 
	C313.714081,172.545486 307.872864,181.263626 301.902924,190.279327 
z"/>
<path fill="#E69470" opacity="1.000000" stroke="none" 
	d="
M260.858032,198.709717 
	C260.858032,198.709717 260.949860,198.344986 261.395752,198.189209 
	C262.292542,199.488693 262.743469,200.943939 263.194397,202.399185 
	C262.991791,202.866013 262.789215,203.332825 262.016602,203.948212 
	C261.021942,204.789368 260.597260,205.481964 260.172577,206.174545 
	C260.172577,206.174545 260.083435,205.986160 259.776611,206.065369 
	C258.104462,207.644714 255.379623,209.038956 259.096649,210.935013 
	C259.096649,210.935013 259.017365,210.996170 259.058502,211.294220 
	C259.784790,212.013519 260.469971,212.434753 261.155121,212.855988 
	C261.155121,212.855988 261.105469,212.934189 261.280304,213.226837 
	C265.596558,214.340332 269.714996,215.641922 273.886108,215.841095 
	C277.731689,216.024704 279.451447,217.242371 279.071075,221.090530 
	C279.071075,221.090530 278.999481,221.002350 278.700836,220.880829 
	C274.025696,218.636337 270.769958,219.022141 267.649872,222.720047 
	C270.134735,222.849640 272.062225,222.950150 273.989716,223.050690 
	C274.618011,223.492340 275.246307,223.934006 275.664246,224.803345 
	C275.337402,225.837891 275.220917,226.444748 275.104462,227.051636 
	C274.621033,227.348572 274.137604,227.645508 273.126617,227.765442 
	C271.265472,227.434982 269.931885,227.281540 269.052704,227.180374 
	C269.052704,229.579376 269.052704,231.354767 269.052704,233.130157 
	C268.291107,233.128769 267.529510,233.127380 266.087189,233.094849 
	C264.625214,234.413391 263.843994,235.763046 263.062744,237.112686 
	C261.954224,237.073624 260.845673,237.034576 259.129639,236.731689 
	C257.688324,236.332748 256.854584,236.197647 255.671692,235.926147 
	C250.385117,233.952072 245.447693,232.114380 240.297485,230.029343 
	C239.744156,229.521530 239.403595,229.261063 239.063049,229.000610 
	C240.351440,223.724350 241.639816,218.448090 242.877090,212.785812 
	C247.313736,209.354660 251.801514,206.309540 256.941803,203.092438 
	C258.682251,201.516876 259.770142,200.113297 260.858032,198.709717 
z"/>
<path fill="#E59370" opacity="1.000000" stroke="none" 
	d="
M212.786255,415.256653 
	C217.876938,418.788940 222.734634,422.626404 227.747406,426.756226 
	C225.504974,434.556549 222.758545,441.978943 220.885513,449.615540 
	C220.158920,452.577911 221.406784,456.024567 221.527802,459.902527 
	C219.956772,462.365967 218.982391,464.991333 217.186493,465.806152 
	C214.185837,467.167603 211.651794,465.167908 210.545456,462.280090 
	C208.199066,456.155518 206.154541,449.915253 203.986237,443.722443 
	C209.936905,435.974335 209.799866,426.354034 212.059921,417.470886 
	C212.221970,416.833923 212.388718,416.198120 212.786255,415.256653 
z"/>
<path fill="#E59370" opacity="1.000000" stroke="none" 
	d="
M235.016571,438.726318 
	C240.110367,437.954895 245.227142,437.624634 250.768906,437.390717 
	C251.142029,440.478912 251.076065,443.470551 251.040848,446.462555 
	C250.921356,456.618073 258.109497,461.172333 265.506592,466.039001 
	C253.795914,466.975372 242.883957,464.791748 233.177261,458.064850 
	C233.798035,451.765717 234.418793,445.466614 235.016571,438.726318 
z"/>
<path fill="#715151" opacity="1.000000" stroke="none" 
	d="
M232.955994,458.346619 
	C242.883957,464.791748 253.795914,466.975372 265.670715,466.331451 
	C270.958557,468.368530 275.960114,470.683105 280.961639,472.997650 
	C280.929871,473.782227 280.898132,474.566772 280.866364,475.351318 
	C278.087463,476.234314 275.207733,478.098785 272.547577,477.825562 
	C262.544464,476.798218 252.612106,475.079224 242.655930,473.601349 
	C241.838913,473.480072 241.044739,473.210968 240.235275,473.031738 
	C229.946457,470.753876 228.866516,468.681854 232.955994,458.346619 
z"/>
<path fill="#715151" opacity="1.000000" stroke="none" 
	d="
M203.638184,443.816223 
	C206.154541,449.915253 208.199066,456.155518 210.545456,462.280090 
	C211.651794,465.167908 214.185837,467.167603 217.186493,465.806152 
	C218.982391,464.991333 219.956772,462.365967 221.533875,460.280212 
	C224.356888,464.337677 226.771774,468.787689 229.597763,472.959198 
	C231.465668,475.716431 231.604294,477.246277 228.034714,478.336365 
	C217.873581,481.439453 209.504333,477.962402 205.259003,468.393921 
	C203.251968,463.870300 201.591888,459.173950 200.065186,454.461700 
	C198.726822,450.330780 199.529984,446.605713 203.638184,443.816223 
z"/>
<path fill="#E69470" opacity="1.000000" stroke="none" 
	d="
M316.888000,145.870621 
	C313.919800,143.313797 310.951599,140.756958 307.671844,138.148956 
	C309.731140,135.167068 312.101990,132.236359 315.134003,129.222900 
	C316.930450,129.683823 318.073212,130.707596 319.199799,130.690094 
	C324.824738,130.602692 330.445435,130.241943 336.067627,129.977341 
	C336.498077,129.949753 336.928558,129.922180 337.877747,130.199844 
	C339.291382,130.805984 340.186279,131.106873 341.252838,131.465500 
	C339.265778,132.367523 337.439178,133.196716 335.942932,133.875931 
	C337.799866,134.624756 339.399689,135.269897 340.999542,135.915070 
	C336.664856,136.607285 332.179932,136.826721 328.043121,138.141541 
	C324.742523,139.190598 321.866150,141.574585 318.560425,143.853027 
	C317.842285,144.850250 317.365143,145.360428 316.888000,145.870621 
z"/>
<path fill="#681D14" opacity="1.000000" stroke="none" 
	d="
M221.549881,52.685257 
	C223.274658,59.525551 218.906616,64.864426 215.967499,70.517159 
	C215.254730,71.888046 212.418182,72.154694 210.220032,72.942719 
	C210.240036,72.086525 210.598221,71.216705 210.981873,70.285042 
	C203.912125,69.360779 202.597931,67.293999 205.047729,60.691971 
	C205.898148,58.400192 206.996994,55.968056 208.669479,54.281361 
	C210.240967,52.696541 212.744751,51.153156 214.789429,51.214756 
	C216.282623,51.259743 217.696472,53.938530 219.539047,55.851685 
	C219.906036,55.236919 220.587524,54.095348 221.549881,52.685257 
M212.783249,65.695915 
	C212.391220,66.523056 211.999176,67.350189 211.607147,68.177330 
	C211.889404,68.353584 212.171661,68.529839 212.453918,68.706093 
	C213.138916,67.955879 213.823914,67.205673 214.971588,65.956215 
	C214.867767,65.335892 214.763947,64.715576 214.660126,64.095261 
	C214.233414,64.452263 213.806717,64.809258 212.783249,65.695915 
z"/>
<path fill="#A0A0AE" opacity="1.000000" stroke="none" 
	d="
M285.743652,165.457642 
	C282.285919,167.538040 284.813599,170.144791 284.734436,172.745331 
	C280.115143,174.126205 271.847504,168.512894 271.280151,163.769455 
	C271.154846,162.721527 272.321381,161.519058 273.138306,160.103973 
	C275.848846,160.893768 278.415253,163.435822 280.802673,159.129745 
	C284.749512,159.376785 286.376953,161.361954 285.743652,165.457642 
z"/>
<path fill="#E09E82" opacity="1.000000" stroke="none" 
	d="
M350.006073,126.062775 
	C350.732147,125.701271 351.458191,125.339760 352.657806,124.742447 
	C352.526276,126.293747 352.428314,127.449387 352.308655,128.860367 
	C354.435150,128.720978 356.527710,128.583801 359.766479,128.371506 
	C357.081299,131.083694 355.347748,132.834671 352.569702,135.640686 
	C350.508179,135.640686 346.742859,135.640686 342.743713,135.427734 
	C344.869202,133.969696 347.228485,132.724609 349.314545,131.623718 
	C348.789856,129.671631 348.439606,128.368546 348.372314,127.029556 
	C349.105530,126.683365 349.555786,126.373070 350.006073,126.062775 
z"/>
<path fill="#E5916D" opacity="1.000000" stroke="none" 
	d="
M335.984314,129.607162 
	C330.445435,130.241943 324.824738,130.602692 319.199799,130.690094 
	C318.073212,130.707596 316.930450,129.683823 315.443390,129.082809 
	C316.030640,128.659897 316.941864,128.101288 317.913391,127.961578 
	C322.569519,127.291954 327.300964,127.014214 331.888275,126.042892 
	C335.033325,125.376953 336.249695,126.039925 335.984314,129.607162 
z"/>
<path fill="#E5916D" opacity="1.000000" stroke="none" 
	d="
M348.089355,127.065453 
	C348.439606,128.368546 348.789856,129.671631 349.314545,131.623718 
	C347.228485,132.724609 344.869202,133.969696 342.285400,135.437576 
	C341.896942,135.756653 341.732971,135.852936 341.284241,135.932144 
	C339.399689,135.269897 337.799866,134.624756 335.942932,133.875931 
	C337.439178,133.196716 339.265778,132.367523 341.252838,131.465500 
	C340.186279,131.106873 339.291382,130.805984 338.197449,130.251877 
	C339.009399,129.660202 340.020355,129.321747 341.758179,128.965546 
	C344.353119,128.320374 346.221252,127.692909 348.089355,127.065453 
z"/>
<path fill="#CE2B35" opacity="1.000000" stroke="none" 
	d="
M316.947571,146.229370 
	C317.365143,145.360428 317.842285,144.850250 318.561340,144.229843 
	C320.956482,146.338409 323.410889,148.350357 325.136444,150.862885 
	C326.004761,152.127167 325.549408,154.300507 325.404144,156.252701 
	C322.412811,153.157791 319.709991,149.872971 316.947571,146.229370 
z"/>
<path fill="#E09E82" opacity="1.000000" stroke="none" 
	d="
M279.397949,220.980835 
	C279.451447,217.242371 277.731689,216.024704 273.886108,215.841095 
	C269.714996,215.641922 265.596558,214.340332 261.263245,213.183792 
	C267.054047,213.478851 273.036804,214.109604 279.375549,214.888977 
	C279.729309,216.982132 279.727051,218.926651 279.397949,220.980835 
z"/>
<path fill="#681D14" opacity="1.000000" stroke="none" 
	d="
M241.891510,99.609627 
	C238.372345,97.942924 234.961029,95.873344 231.549728,93.803757 
	C231.834702,93.285912 232.119690,92.768066 232.404678,92.250221 
	C235.380035,93.361053 238.355392,94.471893 241.642761,95.724380 
	C241.969635,96.979607 241.984497,98.093170 241.891510,99.609627 
z"/>
<path fill="#681D14" opacity="1.000000" stroke="none" 
	d="
M235.733139,48.715424 
	C235.409546,48.916771 234.711685,48.947094 234.517090,48.648926 
	C231.531662,44.075012 228.196365,44.848640 224.311523,47.940956 
	C226.139999,46.353500 228.213013,43.757328 230.555008,43.486397 
	C232.025497,43.316280 233.899826,46.637020 235.733139,48.715424 
z"/>
<path fill="#E09E82" opacity="1.000000" stroke="none" 
	d="
M273.811066,222.755722 
	C272.062225,222.950150 270.134735,222.849640 267.649872,222.720047 
	C270.769958,219.022141 274.025696,218.636337 278.734161,220.927185 
	C277.971985,220.991821 276.826508,220.646011 275.800171,220.863220 
	C275.000702,221.032440 274.349487,221.902298 273.811066,222.755722 
z"/>
<path fill="#A0A0AE" opacity="1.000000" stroke="none" 
	d="
M269.311279,233.365448 
	C269.052704,231.354767 269.052704,229.579376 269.052704,227.180374 
	C269.931885,227.281540 271.265472,227.434982 272.846375,227.852524 
	C273.124573,229.779404 273.155426,231.442200 273.153748,233.519455 
	C271.937469,233.822876 270.753662,233.711823 269.311279,233.365448 
z"/>
<path fill="#E69470" opacity="1.000000" stroke="none" 
	d="
M348.372314,127.029556 
	C346.221252,127.692909 344.353119,128.320374 342.079651,128.911026 
	C343.846680,126.928123 345.646881,124.017662 349.656860,125.995529 
	C349.555786,126.373070 349.105530,126.683365 348.372314,127.029556 
z"/>
<path fill="#681D14" opacity="1.000000" stroke="none" 
	d="
M246.122192,49.602497 
	C244.431519,49.798306 242.525604,49.722061 240.327484,49.376732 
	C241.992508,49.181911 243.949722,49.256180 246.122192,49.602497 
z"/>
<path fill="#AE3A49" opacity="1.000000" stroke="none" 
	d="
M201.056671,229.297974 
	C201.892654,229.450577 202.793793,229.901672 203.788055,230.600540 
	C203.259384,230.841904 202.637604,230.835510 201.701828,230.807327 
	C201.299179,230.389191 201.210495,229.992844 201.056671,229.297974 
z"/>
<path fill="#681D14" opacity="1.000000" stroke="none" 
	d="
M223.682739,48.136028 
	C223.501358,49.200085 223.041702,50.448200 222.268677,51.853714 
	C222.438354,50.780777 222.921402,49.550434 223.682739,48.136028 
z"/>
<path fill="#681D14" opacity="1.000000" stroke="none" 
	d="
M208.770554,74.262627 
	C208.518478,75.028618 208.002609,75.954948 207.131073,76.897301 
	C207.352539,76.083206 207.929657,75.253082 208.770554,74.262627 
z"/>
<path fill="#E09E82" opacity="1.000000" stroke="none" 
	d="
M275.365814,226.894547 
	C275.220917,226.444748 275.337402,225.837891 275.680054,225.116486 
	C275.813202,225.580460 275.720184,226.158966 275.365814,226.894547 
z"/>
<path fill="#681D14" opacity="1.000000" stroke="none" 
	d="
M237.752930,49.287220 
	C237.855499,49.711090 237.695023,50.072071 237.534546,50.433052 
	C237.365585,50.233498 237.196625,50.033947 237.004929,49.622696 
	C237.151428,49.348774 237.320648,49.286552 237.752930,49.287220 
z"/>
<path fill="#465789" opacity="1.000000" stroke="none" 
	d="
M253.369904,280.582092 
	C251.553696,271.261566 249.879425,262.347382 248.205154,253.433197 
	C248.753830,253.270981 249.302505,253.108749 249.851181,252.946533 
	C250.293213,253.951981 250.945435,254.917374 251.145905,255.968872 
	C254.459915,273.350372 257.902832,290.710693 260.907227,308.146332 
	C262.365784,316.611084 263.156647,325.205292 263.936523,333.769379 
	C265.282196,348.546326 260.344055,362.326477 256.271942,376.097870 
	C251.334442,392.795929 245.442612,409.212891 239.878754,425.722839 
	C239.365463,427.245941 238.238525,428.562256 237.396530,429.974579 
	C236.967056,429.797699 236.537598,429.620819 236.108124,429.443939 
	C236.525360,427.449890 236.754135,425.393555 237.389069,423.471405 
	C243.525391,404.894470 249.757919,386.349304 255.906769,367.776459 
	C261.439240,351.065369 262.426971,334.088135 259.224762,316.752960 
	C257.032410,304.884674 255.396515,292.913544 253.369904,280.582092 
z"/>
<path fill="#EFEEEE" opacity="1.000000" stroke="none" 
	d="
M240.510254,230.276688 
	C245.447693,232.114380 250.385117,233.952072 255.625641,236.195099 
	C255.827332,236.950424 255.725922,237.300430 255.624512,237.650452 
	C251.811050,240.821442 247.715363,243.716095 244.263626,247.241302 
	C240.825470,250.752670 238.242264,250.471344 235.473404,246.789856 
	C234.980469,246.134445 234.315887,245.608124 233.428345,244.561310 
	C233.212387,243.524902 233.298660,242.949387 233.384949,242.373871 
	C233.384949,242.373871 233.381027,242.299118 233.680466,242.268616 
	C236.156693,238.250961 238.333481,234.263824 240.510254,230.276688 
z"/>
<path fill="#576FA5" opacity="1.000000" stroke="none" 
	d="
M212.033340,236.835358 
	C206.622467,251.257050 209.595001,265.446869 213.375168,279.556152 
	C215.084381,285.935760 217.322037,292.172424 219.172974,298.516785 
	C219.507996,299.665131 219.129242,301.021729 219.039764,302.641296 
	C218.999527,303.000427 218.990295,303.009766 218.990295,303.009766 
	C217.524246,299.424164 215.527542,295.957947 214.689285,292.231140 
	C211.915726,279.900299 208.887039,267.558777 207.338623,255.050247 
	C206.605743,249.129974 209.011398,242.821198 210.303284,236.309357 
	C211.085434,236.231964 211.559387,236.533661 212.033340,236.835358 
z"/>
<path fill="#576FA5" opacity="1.000000" stroke="none" 
	d="
M225.869507,394.845947 
	C224.384506,400.647491 222.980560,406.039001 221.523468,411.634583 
	C219.234650,407.759918 224.300964,385.507751 230.879761,369.611633 
	C231.307617,369.703186 231.735489,369.794739 232.163345,369.886292 
	C231.073364,373.897522 229.927658,377.894653 228.908859,381.923889 
	C227.858429,386.078278 226.931503,390.263885 225.869507,394.845947 
z"/>
<path fill="#576FA5" opacity="1.000000" stroke="none" 
	d="
M219.004150,302.997253 
	C220.097839,305.148804 221.421799,307.218842 222.234863,309.473175 
	C225.525253,318.596283 228.678299,327.769318 231.831223,336.941376 
	C232.396332,338.585327 232.721237,340.311859 232.374680,342.248352 
	C226.680878,329.866394 220.949539,317.527710 218.990356,303.429169 
	C218.990295,303.009766 218.999527,303.000427 219.004150,302.997253 
z"/>
<path fill="#AE3A49" opacity="1.000000" stroke="none" 
	d="
M212.403564,236.872925 
	C211.559387,236.533661 211.085434,236.231964 210.318512,235.907898 
	C208.361038,234.530792 206.696533,233.176071 204.965851,231.499146 
	C214.127731,234.811996 223.355804,238.447067 232.984406,242.227997 
	C233.298660,242.949387 233.212387,243.524902 233.123047,244.394608 
	C226.337921,242.096039 219.555862,239.503265 212.403564,236.872925 
z"/>
<path fill="#576FA5" opacity="1.000000" stroke="none" 
	d="
M236.974213,360.687408 
	C236.470337,361.983398 235.971771,362.868835 235.473206,363.754272 
	C234.996674,363.674042 234.520142,363.593842 234.043610,363.513611 
	C234.043610,357.204163 234.043610,350.894745 234.043610,344.585297 
	C234.361450,344.498413 234.679291,344.411530 234.997131,344.324646 
	C235.657928,349.642059 236.318726,354.959442 236.974213,360.687408 
z"/>
<path fill="#A0A0AE" opacity="1.000000" stroke="none" 
	d="
M263.277588,237.328735 
	C263.843994,235.763046 264.625214,234.413391 265.707764,233.126678 
	C265.170197,234.641357 264.331268,236.093063 263.277588,237.328735 
z"/>
<path fill="#A0A0AE" opacity="1.000000" stroke="none" 
	d="
M255.984116,237.728851 
	C255.725922,237.300430 255.827332,236.950424 255.974777,236.331482 
	C256.854584,236.197647 257.688324,236.332748 258.713806,236.720306 
	C258.051544,237.250931 257.197632,237.529083 255.984116,237.728851 
z"/>
<path fill="#CE2B35" opacity="1.000000" stroke="none" 
	d="
M202.070190,184.763229 
	C200.663788,186.897842 199.206848,188.616318 197.407516,190.423920 
	C199.725952,183.983322 201.570541,176.951691 205.214081,171.026215 
	C213.309906,157.859985 212.702499,145.105682 205.636215,132.027588 
	C205.167908,131.160858 204.753174,130.259003 204.402878,129.339447 
	C204.322983,129.129715 204.614502,128.778503 205.276962,127.206779 
	C206.994202,130.384460 208.591064,132.724121 209.592026,135.295700 
	C214.528336,147.977585 215.000534,160.231415 206.760788,172.099884 
	C204.334351,175.594894 203.554260,180.232895 202.070190,184.763229 
z"/>
<path fill="#CE2B35" opacity="1.000000" stroke="none" 
	d="
M196.515839,192.970978 
	C197.055634,193.433151 197.205612,193.918243 197.215622,194.664368 
	C192.327438,196.636307 187.579208,198.347168 182.418121,200.031433 
	C182.005234,200.004837 181.927872,199.927795 181.927872,199.927795 
	C184.868927,197.702896 187.809982,195.478012 191.279953,192.852982 
	C186.471817,193.120407 182.057770,193.365906 177.643707,193.611404 
	C177.641266,193.151230 177.638809,192.691071 177.636353,192.230896 
	C183.746826,190.086151 189.908157,190.254364 196.515839,192.970978 
z"/>
<path fill="#CE2B35" opacity="1.000000" stroke="none" 
	d="
M269.825989,153.891998 
	C268.833374,153.492050 267.955292,152.661621 266.958496,151.529846 
	C264.523804,144.088730 262.226227,136.942886 259.875336,129.814621 
	C259.431396,128.468445 258.775360,127.192207 258.908844,125.599724 
	C264.322540,134.173553 268.075073,143.429794 269.825989,153.891998 
z"/>
<path fill="#AE3A49" opacity="1.000000" stroke="none" 
	d="
M240.297485,230.029343 
	C238.333481,234.263824 236.156693,238.250961 233.644806,242.279938 
	C235.009552,237.994370 236.709412,233.666977 238.736160,229.170105 
	C239.403595,229.261063 239.744156,229.521530 240.297485,230.029343 
z"/>
<path fill="#CE2B35" opacity="1.000000" stroke="none" 
	d="
M182.044098,200.043198 
	C180.850983,201.460831 179.619003,202.840103 178.387024,204.219360 
	C177.939224,203.684998 177.491425,203.150635 177.043625,202.616272 
	C178.441635,201.758087 179.839630,200.899902 181.582764,199.984772 
	C181.927872,199.927795 182.005234,200.004837 182.044098,200.043198 
z"/>
<path fill="#CE2B35" opacity="1.000000" stroke="none" 
	d="
M270.878662,155.288864 
	C270.541473,155.335999 270.126373,155.058243 269.811646,154.401367 
	C270.208252,154.336166 270.504456,154.650070 270.878662,155.288864 
z"/>
<path fill="#E09E82" opacity="1.000000" stroke="none" 
	d="
M263.523987,202.230423 
	C262.743469,200.943939 262.292542,199.488693 261.496765,198.030609 
	C261.759338,196.503326 262.366821,194.978912 262.974274,193.454498 
	C266.843536,197.913635 265.879059,200.065140 263.523987,202.230423 
z"/>
<path fill="#E09E82" opacity="1.000000" stroke="none" 
	d="
M260.539978,198.824326 
	C259.770142,200.113297 258.682251,201.516876 257.230530,202.929153 
	C257.985138,201.604874 259.103516,200.271896 260.539978,198.824326 
z"/>
<path fill="#E09E82" opacity="1.000000" stroke="none" 
	d="
M259.115356,210.582443 
	C255.379623,209.038956 258.104462,207.644714 259.828796,206.157684 
	C259.836548,207.523834 259.485321,208.876846 259.115356,210.582443 
z"/>
<path fill="#E09E82" opacity="1.000000" stroke="none" 
	d="
M261.083862,212.554321 
	C260.469971,212.434753 259.784790,212.013519 259.083252,211.250702 
	C259.715485,211.356979 260.364044,211.804810 261.083862,212.554321 
z"/>
<path fill="#E09E82" opacity="1.000000" stroke="none" 
	d="
M260.474243,206.101959 
	C260.597260,205.481964 261.021942,204.789368 261.794220,204.080795 
	C261.686523,204.719681 261.231201,205.374527 260.474243,206.101959 
z"/>
<path fill="#EFEEEE" opacity="1.000000" stroke="none" 
	d="
M246.752319,82.075424 
	C248.071289,82.907333 248.973450,83.723282 249.875626,84.539230 
	C248.575287,85.559380 246.998734,87.632912 246.032349,87.379509 
	C244.045593,86.858521 242.385284,85.092613 240.590607,83.839073 
	C240.809311,83.324104 241.028015,82.809128 241.246719,82.294151 
	C242.942993,82.215919 244.639252,82.137688 246.752319,82.075424 
z"/>
<path fill="none" opacity="1.000000" stroke="none" 
	d="
M214.508911,66.455467 
	C213.823914,67.205673 213.138916,67.955879 212.453918,68.706093 
	C212.171661,68.529839 211.889404,68.353584 211.607147,68.177330 
	C211.999176,67.350189 212.391220,66.523056 213.351562,65.764145 
	C214.116226,66.040070 214.312576,66.247772 214.508911,66.455467 
z"/>
<path fill="none" opacity="1.000000" stroke="none" 
	d="
M213.649963,65.499313 
	C213.806717,64.809258 214.233414,64.452263 214.660126,64.095261 
	C214.763947,64.715576 214.867767,65.335892 214.740250,66.205841 
	C214.312576,66.247772 214.116226,66.040070 213.649963,65.499313 
z"/>
</svg>